<?xml version="1.0" standalone="no"?>
<!DOCTYPE svg PUBLIC "-//W3C//DTD SVG 20010904//EN"
 "http://www.w3.org/TR/2001/REC-SVG-20010904/DTD/svg10.dtd">
<svg version="1.0" xmlns="http://www.w3.org/2000/svg"
 width="576.000000pt" height="576.000000pt" viewBox="0 0 576.000000 576.000000"
 preserveAspectRatio="xMidYMid meet">
<metadata>
Created by potrace 1.11, written by Peter Selinger 2001-2013
</metadata>
<g transform="translate(0.000000,576.000000) scale(0.100000,-0.100000)"
fill="#000000" stroke="none">
<path d="M3377 5663 c-4 -3 -7 -73 -7 -155 l0 -148 -137 0 c-76 -1 -201 -2
-278 -3 l-140 -2 -3 -227 -2 -228 -128 0 c-70 -1 -185 -2 -257 -3 l-130 -2 -3
-717 -2 -718 -60 0 c-59 0 -60 0 -60 29 0 23 6 30 25 35 25 6 26 9 23 74 -3
60 -5 67 -25 70 -17 3 -23 11 -25 40 -3 35 -5 37 -42 40 -68 6 -86 -4 -86 -43
l0 -35 -187 -1 c-104 -1 -195 -2 -203 -3 -20 -1 -27 -125 -8 -137 7 -5 100 -9
206 -9 l192 0 0 -30 c0 -29 -2 -30 -47 -31 -27 -1 -55 -2 -63 -3 -11 -1 -16
-17 -18 -63 l-3 -62 -152 -3 -152 -3 -3 -62 -3 -63 -799 0 -800 0 0 -330 0
-330 800 0 800 0 0 -49 c0 -84 -7 -81 161 -81 l148 0 3 -52 c2 -38 7 -53 18
-54 8 -1 93 -2 187 -3 l173 -1 2 -717 3 -718 130 -2 c72 -1 187 -2 257 -3
l128 0 2 -237 3 -238 140 -2 c77 -1 202 -2 277 -3 l137 0 3 -152 3 -153 340 0
340 0 3 1137 2 1137 73 3 72 3 3 168 2 167 775 0 775 0 0 185 0 185 -775 0
-775 0 -2 168 -3 167 -72 3 -73 3 -2 1132 -3 1132 -336 2 c-185 2 -339 0 -342
-4z"/>
</g>
</svg>
